<mxfile host="Electron" modified="2023-08-23T13:35:44.109Z" agent="Mozilla/5.0 (Windows NT 10.0; Win64; x64) AppleWebKit/537.36 (KHTML, like Gecko) draw.io/21.3.7 Chrome/112.0.5615.204 Electron/24.5.0 Safari/537.36" etag="MZpV_swOPYKpMN8uSFBv" version="21.3.7" type="device">
  <diagram name="Page-1" id="jel4yk-7SxjorbVxU21P">
    <mxGraphModel dx="2404" dy="1895" grid="1" gridSize="10" guides="1" tooltips="1" connect="1" arrows="1" fold="1" page="1" pageScale="1" pageWidth="827" pageHeight="1169" math="0" shadow="0">
      <root>
        <mxCell id="0" />
        <mxCell id="1" parent="0" />
        <mxCell id="zFSgU1JudAxs3S3j0qi4-1" value="" style="rounded=0;whiteSpace=wrap;html=1;" parent="1" vertex="1">
          <mxGeometry x="-538.75" y="30" width="1838.75" height="1460" as="geometry" />
        </mxCell>
        <mxCell id="zFSgU1JudAxs3S3j0qi4-2" style="edgeStyle=none;rounded=1;html=1;labelBackgroundColor=none;startArrow=none;startFill=0;startSize=5;endArrow=classicThin;endFill=1;endSize=5;jettySize=auto;orthogonalLoop=1;strokeColor=#B3B3B3;strokeWidth=1;fontFamily=Verdana;fontSize=12" parent="1" source="zFSgU1JudAxs3S3j0qi4-6" target="zFSgU1JudAxs3S3j0qi4-9" edge="1">
          <mxGeometry relative="1" as="geometry" />
        </mxCell>
        <mxCell id="zFSgU1JudAxs3S3j0qi4-3" value="Include" style="edgeLabel;html=1;align=center;verticalAlign=middle;resizable=0;points=[];" parent="zFSgU1JudAxs3S3j0qi4-2" vertex="1" connectable="0">
          <mxGeometry x="-0.279" y="2" relative="1" as="geometry">
            <mxPoint as="offset" />
          </mxGeometry>
        </mxCell>
        <mxCell id="zFSgU1JudAxs3S3j0qi4-4" value="" style="edgeStyle=orthogonalEdgeStyle;rounded=0;orthogonalLoop=1;jettySize=auto;html=1;exitX=0;exitY=0.5;exitDx=0;exitDy=0;entryX=1;entryY=0.5;entryDx=0;entryDy=0;" parent="1" source="zFSgU1JudAxs3S3j0qi4-65" target="zFSgU1JudAxs3S3j0qi4-6" edge="1">
          <mxGeometry relative="1" as="geometry" />
        </mxCell>
        <mxCell id="zFSgU1JudAxs3S3j0qi4-5" value="Extend" style="edgeLabel;html=1;align=center;verticalAlign=middle;resizable=0;points=[];" parent="zFSgU1JudAxs3S3j0qi4-4" vertex="1" connectable="0">
          <mxGeometry x="-0.2375" relative="1" as="geometry">
            <mxPoint as="offset" />
          </mxGeometry>
        </mxCell>
        <mxCell id="zFSgU1JudAxs3S3j0qi4-6" value="Page d&#39;Accueil" style="ellipse;whiteSpace=wrap;html=1;rounded=0;shadow=1;comic=0;labelBackgroundColor=none;strokeWidth=1;fontFamily=Verdana;fontSize=12;align=center;" parent="1" vertex="1">
          <mxGeometry x="450" y="80" width="90" height="60" as="geometry" />
        </mxCell>
        <mxCell id="zFSgU1JudAxs3S3j0qi4-7" value="Extend" style="edgeStyle=none;rounded=1;html=1;labelBackgroundColor=none;startArrow=none;startFill=0;startSize=5;endArrow=classicThin;endFill=1;endSize=5;jettySize=auto;orthogonalLoop=1;strokeColor=#B3B3B3;strokeWidth=1;fontFamily=Verdana;fontSize=12;exitX=0.676;exitY=0;exitDx=0;exitDy=0;entryX=0.25;entryY=0.997;entryDx=0;entryDy=0;entryPerimeter=0;exitPerimeter=0;" parent="1" source="zFSgU1JudAxs3S3j0qi4-11" target="zFSgU1JudAxs3S3j0qi4-9" edge="1">
          <mxGeometry relative="1" as="geometry">
            <mxPoint x="380" y="230" as="targetPoint" />
          </mxGeometry>
        </mxCell>
        <mxCell id="zFSgU1JudAxs3S3j0qi4-8" value="Include" style="edgeStyle=none;rounded=1;html=1;labelBackgroundColor=none;startArrow=none;startFill=0;startSize=5;endArrow=classicThin;endFill=1;endSize=5;jettySize=auto;orthogonalLoop=1;strokeColor=#B3B3B3;strokeWidth=1;fontFamily=Verdana;fontSize=12" parent="1" source="zFSgU1JudAxs3S3j0qi4-9" target="zFSgU1JudAxs3S3j0qi4-10" edge="1">
          <mxGeometry relative="1" as="geometry" />
        </mxCell>
        <mxCell id="zFSgU1JudAxs3S3j0qi4-9" value="Naviguer dans le Catalogue" style="ellipse;whiteSpace=wrap;html=1;rounded=0;shadow=1;comic=0;labelBackgroundColor=none;strokeWidth=1;fontFamily=Verdana;fontSize=12;align=center;" parent="1" vertex="1">
          <mxGeometry x="443.75" y="185" width="102.5" height="60" as="geometry" />
        </mxCell>
        <mxCell id="zFSgU1JudAxs3S3j0qi4-10" value="Afficher Détails Produit  " style="ellipse;whiteSpace=wrap;html=1;rounded=0;shadow=1;comic=0;labelBackgroundColor=none;strokeWidth=1;fontFamily=Verdana;fontSize=12;align=center;" parent="1" vertex="1">
          <mxGeometry x="546.25" y="320" width="93.75" height="60" as="geometry" />
        </mxCell>
        <mxCell id="zFSgU1JudAxs3S3j0qi4-11" value=" Appliquer des Filtres de Catégories" style="ellipse;whiteSpace=wrap;html=1;rounded=0;shadow=1;comic=0;labelBackgroundColor=none;strokeWidth=1;fontFamily=Verdana;fontSize=12;align=center;" parent="1" vertex="1">
          <mxGeometry x="350" y="320" width="100" height="60" as="geometry" />
        </mxCell>
        <mxCell id="zFSgU1JudAxs3S3j0qi4-12" value="" style="edgeStyle=orthogonalEdgeStyle;rounded=0;orthogonalLoop=1;jettySize=auto;html=1;exitX=0.5;exitY=1;exitDx=0;exitDy=0;" parent="1" source="zFSgU1JudAxs3S3j0qi4-65" target="zFSgU1JudAxs3S3j0qi4-25" edge="1">
          <mxGeometry relative="1" as="geometry">
            <Array as="points">
              <mxPoint x="905" y="240" />
              <mxPoint x="1150" y="240" />
              <mxPoint x="1150" y="655" />
            </Array>
            <mxPoint x="900" y="170" as="sourcePoint" />
          </mxGeometry>
        </mxCell>
        <mxCell id="zFSgU1JudAxs3S3j0qi4-13" value="Include" style="edgeLabel;html=1;align=center;verticalAlign=middle;resizable=0;points=[];" parent="zFSgU1JudAxs3S3j0qi4-12" vertex="1" connectable="0">
          <mxGeometry x="0.223" y="1" relative="1" as="geometry">
            <mxPoint x="106" y="-14" as="offset" />
          </mxGeometry>
        </mxCell>
        <mxCell id="zFSgU1JudAxs3S3j0qi4-14" value="" style="edgeStyle=orthogonalEdgeStyle;rounded=0;orthogonalLoop=1;jettySize=auto;html=1;entryX=0.5;entryY=1;entryDx=0;entryDy=0;" parent="1" source="zFSgU1JudAxs3S3j0qi4-16" target="zFSgU1JudAxs3S3j0qi4-64" edge="1">
          <mxGeometry relative="1" as="geometry">
            <mxPoint x="854.995" y="460" as="targetPoint" />
          </mxGeometry>
        </mxCell>
        <mxCell id="zFSgU1JudAxs3S3j0qi4-15" value="Extend" style="edgeLabel;html=1;align=center;verticalAlign=middle;resizable=0;points=[];" parent="zFSgU1JudAxs3S3j0qi4-14" vertex="1" connectable="0">
          <mxGeometry x="-0.2663" relative="1" as="geometry">
            <mxPoint as="offset" />
          </mxGeometry>
        </mxCell>
        <mxCell id="zFSgU1JudAxs3S3j0qi4-16" value=" Ajouter au Panier  " style="ellipse;whiteSpace=wrap;html=1;rounded=0;shadow=1;comic=0;labelBackgroundColor=none;strokeWidth=1;fontFamily=Verdana;fontSize=12;align=center;" parent="1" vertex="1">
          <mxGeometry x="817.5" y="550" width="75" height="50" as="geometry" />
        </mxCell>
        <mxCell id="zFSgU1JudAxs3S3j0qi4-17" value="" style="edgeStyle=orthogonalEdgeStyle;rounded=0;orthogonalLoop=1;jettySize=auto;html=1;" parent="1" target="zFSgU1JudAxs3S3j0qi4-6" edge="1">
          <mxGeometry relative="1" as="geometry">
            <mxPoint x="495" y="10" as="sourcePoint" />
          </mxGeometry>
        </mxCell>
        <mxCell id="zFSgU1JudAxs3S3j0qi4-18" value="Utilisateur" style="shape=umlActor;verticalLabelPosition=bottom;verticalAlign=top;html=1;outlineConnect=0;" parent="1" vertex="1">
          <mxGeometry x="480" y="-70" width="30" height="60" as="geometry" />
        </mxCell>
        <mxCell id="zFSgU1JudAxs3S3j0qi4-19" value="" style="edgeStyle=orthogonalEdgeStyle;rounded=0;orthogonalLoop=1;jettySize=auto;html=1;entryX=1;entryY=0.5;entryDx=0;entryDy=0;" parent="1" source="zFSgU1JudAxs3S3j0qi4-21" target="zFSgU1JudAxs3S3j0qi4-65" edge="1">
          <mxGeometry relative="1" as="geometry" />
        </mxCell>
        <mxCell id="zFSgU1JudAxs3S3j0qi4-20" value="Extend" style="edgeLabel;html=1;align=center;verticalAlign=middle;resizable=0;points=[];" parent="zFSgU1JudAxs3S3j0qi4-19" vertex="1" connectable="0">
          <mxGeometry x="-0.3" y="-4" relative="1" as="geometry">
            <mxPoint x="12" y="-14" as="offset" />
          </mxGeometry>
        </mxCell>
        <mxCell id="zFSgU1JudAxs3S3j0qi4-21" value="Supprimer" style="ellipse;whiteSpace=wrap;html=1;rounded=0;shadow=1;comic=0;labelBackgroundColor=none;strokeWidth=1;fontFamily=Verdana;fontSize=12;align=center;" parent="1" vertex="1">
          <mxGeometry x="1046.25" y="85" width="75" height="50" as="geometry" />
        </mxCell>
        <mxCell id="zFSgU1JudAxs3S3j0qi4-22" value="" style="edgeStyle=orthogonalEdgeStyle;rounded=0;orthogonalLoop=1;jettySize=auto;html=1;" parent="1" source="zFSgU1JudAxs3S3j0qi4-24" target="zFSgU1JudAxs3S3j0qi4-65" edge="1">
          <mxGeometry relative="1" as="geometry" />
        </mxCell>
        <mxCell id="zFSgU1JudAxs3S3j0qi4-23" value="Extend" style="edgeLabel;html=1;align=center;verticalAlign=middle;resizable=0;points=[];" parent="zFSgU1JudAxs3S3j0qi4-22" vertex="1" connectable="0">
          <mxGeometry x="0.3548" y="-2" relative="1" as="geometry">
            <mxPoint x="-2" y="14" as="offset" />
          </mxGeometry>
        </mxCell>
        <mxCell id="zFSgU1JudAxs3S3j0qi4-24" value="  Modifier" style="ellipse;whiteSpace=wrap;html=1;rounded=0;shadow=1;comic=0;labelBackgroundColor=none;strokeWidth=1;fontFamily=Verdana;fontSize=12;align=center;" parent="1" vertex="1">
          <mxGeometry x="1030" y="20" width="75" height="50" as="geometry" />
        </mxCell>
        <mxCell id="zFSgU1JudAxs3S3j0qi4-25" value="Passer a la caisse" style="ellipse;whiteSpace=wrap;html=1;rounded=0;shadow=1;comic=0;labelBackgroundColor=none;strokeWidth=1;fontFamily=Verdana;fontSize=12;align=center;" parent="1" vertex="1">
          <mxGeometry x="457.5" y="630" width="75" height="50" as="geometry" />
        </mxCell>
        <mxCell id="zFSgU1JudAxs3S3j0qi4-26" value="" style="edgeStyle=orthogonalEdgeStyle;rounded=0;orthogonalLoop=1;jettySize=auto;html=1;exitX=1;exitY=0.5;exitDx=0;exitDy=0;" parent="1" source="mhW23_94ExutKZyGpzAe-13" target="zFSgU1JudAxs3S3j0qi4-31" edge="1">
          <mxGeometry relative="1" as="geometry">
            <Array as="points">
              <mxPoint x="519" y="1108" />
            </Array>
          </mxGeometry>
        </mxCell>
        <mxCell id="zFSgU1JudAxs3S3j0qi4-27" value="Effectuer le Paiement" style="ellipse;whiteSpace=wrap;html=1;rounded=0;shadow=1;comic=0;labelBackgroundColor=none;strokeWidth=1;fontFamily=Verdana;fontSize=12;align=center;" parent="1" vertex="1">
          <mxGeometry x="457.5" y="840" width="75" height="50" as="geometry" />
        </mxCell>
        <mxCell id="zFSgU1JudAxs3S3j0qi4-28" value="Include" style="html=1;verticalAlign=bottom;endArrow=block;edgeStyle=elbowEdgeStyle;elbow=vertical;curved=0;rounded=0;exitX=0.5;exitY=1;exitDx=0;exitDy=0;entryX=0.5;entryY=0;entryDx=0;entryDy=0;" parent="1" source="zFSgU1JudAxs3S3j0qi4-25" target="zFSgU1JudAxs3S3j0qi4-27" edge="1">
          <mxGeometry width="80" relative="1" as="geometry">
            <mxPoint x="530" y="730" as="sourcePoint" />
            <mxPoint x="610" y="730" as="targetPoint" />
          </mxGeometry>
        </mxCell>
        <mxCell id="zFSgU1JudAxs3S3j0qi4-29" value="" style="edgeStyle=orthogonalEdgeStyle;rounded=0;orthogonalLoop=1;jettySize=auto;html=1;" parent="1" source="zFSgU1JudAxs3S3j0qi4-30" target="zFSgU1JudAxs3S3j0qi4-18" edge="1">
          <mxGeometry relative="1" as="geometry">
            <mxPoint x="767.5" y="865" as="targetPoint" />
            <Array as="points">
              <mxPoint x="1230" y="865" />
              <mxPoint x="1230" y="-40" />
            </Array>
          </mxGeometry>
        </mxCell>
        <mxCell id="zFSgU1JudAxs3S3j0qi4-30" value=" Envoyer Courriel de Confirmation &lt;br&gt;avec les détails de commande" style="ellipse;whiteSpace=wrap;html=1;rounded=0;shadow=1;comic=0;labelBackgroundColor=none;strokeWidth=1;fontFamily=Verdana;fontSize=12;align=center;" parent="1" vertex="1">
          <mxGeometry x="770" y="825" width="160" height="105" as="geometry" />
        </mxCell>
        <mxCell id="zFSgU1JudAxs3S3j0qi4-31" value="Achat &amp;gt; 100$" style="rhombus;whiteSpace=wrap;html=1;fontColor=#000000;fillColor=#ffffc0;strokeColor=#ff0000;" parent="1" vertex="1">
          <mxGeometry x="580" y="1080" width="105" height="55" as="geometry" />
        </mxCell>
        <mxCell id="zFSgU1JudAxs3S3j0qi4-32" value="no" style="edgeStyle=orthogonalEdgeStyle;html=1;align=left;verticalAlign=bottom;endArrow=open;endSize=8;strokeColor=#ff0000;rounded=0;entryX=0;entryY=0.5;entryDx=0;entryDy=0;" parent="1" source="zFSgU1JudAxs3S3j0qi4-31" target="zFSgU1JudAxs3S3j0qi4-30" edge="1">
          <mxGeometry x="-1" relative="1" as="geometry">
            <mxPoint x="760" y="900" as="targetPoint" />
          </mxGeometry>
        </mxCell>
        <mxCell id="zFSgU1JudAxs3S3j0qi4-33" value="yes" style="edgeStyle=orthogonalEdgeStyle;html=1;align=left;verticalAlign=top;endArrow=open;endSize=8;strokeColor=#ff0000;rounded=0;entryX=0.5;entryY=0;entryDx=0;entryDy=0;" parent="1" source="zFSgU1JudAxs3S3j0qi4-31" target="zFSgU1JudAxs3S3j0qi4-35" edge="1">
          <mxGeometry x="-1" relative="1" as="geometry">
            <mxPoint x="633" y="970" as="targetPoint" />
            <Array as="points" />
          </mxGeometry>
        </mxCell>
        <mxCell id="zFSgU1JudAxs3S3j0qi4-34" value="" style="edgeStyle=orthogonalEdgeStyle;rounded=0;orthogonalLoop=1;jettySize=auto;html=1;entryX=0.5;entryY=1;entryDx=0;entryDy=0;" parent="1" source="zFSgU1JudAxs3S3j0qi4-35" target="zFSgU1JudAxs3S3j0qi4-30" edge="1">
          <mxGeometry relative="1" as="geometry">
            <mxPoint x="785" y="1010" as="targetPoint" />
          </mxGeometry>
        </mxCell>
        <mxCell id="zFSgU1JudAxs3S3j0qi4-35" value=" Envoyer Coupon de Livraison Gratuite par Email" style="ellipse;whiteSpace=wrap;html=1;rounded=0;shadow=1;comic=0;labelBackgroundColor=none;strokeWidth=1;fontFamily=Verdana;fontSize=12;align=center;" parent="1" vertex="1">
          <mxGeometry x="560" y="1190" width="145" height="80" as="geometry" />
        </mxCell>
        <mxCell id="zFSgU1JudAxs3S3j0qi4-36" value="" style="edgeStyle=orthogonalEdgeStyle;rounded=0;orthogonalLoop=1;jettySize=auto;html=1;" parent="1" edge="1">
          <mxGeometry relative="1" as="geometry">
            <mxPoint x="590.6700000000004" y="979.9953140723347" as="sourcePoint" />
            <mxPoint x="533" y="870" as="targetPoint" />
            <Array as="points">
              <mxPoint x="591" y="870" />
            </Array>
          </mxGeometry>
        </mxCell>
        <mxCell id="zFSgU1JudAxs3S3j0qi4-37" value="Include" style="edgeLabel;html=1;align=center;verticalAlign=middle;resizable=0;points=[];" parent="zFSgU1JudAxs3S3j0qi4-36" vertex="1" connectable="0">
          <mxGeometry x="-0.3694" relative="1" as="geometry">
            <mxPoint as="offset" />
          </mxGeometry>
        </mxCell>
        <mxCell id="mhW23_94ExutKZyGpzAe-14" value="" style="edgeStyle=orthogonalEdgeStyle;rounded=0;orthogonalLoop=1;jettySize=auto;html=1;entryX=0.5;entryY=0;entryDx=0;entryDy=0;" parent="1" source="zFSgU1JudAxs3S3j0qi4-38" target="mhW23_94ExutKZyGpzAe-13" edge="1">
          <mxGeometry relative="1" as="geometry" />
        </mxCell>
        <mxCell id="mhW23_94ExutKZyGpzAe-17" value="Include" style="edgeLabel;html=1;align=center;verticalAlign=middle;resizable=0;points=[];" parent="mhW23_94ExutKZyGpzAe-14" vertex="1" connectable="0">
          <mxGeometry x="-0.6175" y="1" relative="1" as="geometry">
            <mxPoint as="offset" />
          </mxGeometry>
        </mxCell>
        <mxCell id="zFSgU1JudAxs3S3j0qi4-38" value="Paypal" style="ellipse;whiteSpace=wrap;html=1;rounded=0;shadow=1;comic=0;labelBackgroundColor=none;strokeWidth=1;fontFamily=Verdana;fontSize=12;align=center;" parent="1" vertex="1">
          <mxGeometry x="546.25" y="980" width="75" height="50" as="geometry" />
        </mxCell>
        <mxCell id="zFSgU1JudAxs3S3j0qi4-39" value="" style="edgeStyle=orthogonalEdgeStyle;rounded=0;orthogonalLoop=1;jettySize=auto;html=1;" parent="1" source="zFSgU1JudAxs3S3j0qi4-41" target="zFSgU1JudAxs3S3j0qi4-27" edge="1">
          <mxGeometry relative="1" as="geometry">
            <Array as="points">
              <mxPoint x="400" y="865" />
              <mxPoint x="400" y="865" />
            </Array>
          </mxGeometry>
        </mxCell>
        <mxCell id="zFSgU1JudAxs3S3j0qi4-40" value="Include" style="edgeLabel;html=1;align=center;verticalAlign=middle;resizable=0;points=[];" parent="zFSgU1JudAxs3S3j0qi4-39" vertex="1" connectable="0">
          <mxGeometry x="-0.1302" relative="1" as="geometry">
            <mxPoint as="offset" />
          </mxGeometry>
        </mxCell>
        <mxCell id="zFSgU1JudAxs3S3j0qi4-41" value="Crédit" style="ellipse;whiteSpace=wrap;html=1;rounded=0;shadow=1;comic=0;labelBackgroundColor=none;strokeWidth=1;fontFamily=Verdana;fontSize=12;align=center;" parent="1" vertex="1">
          <mxGeometry x="265" y="840" width="75" height="50" as="geometry" />
        </mxCell>
        <mxCell id="zFSgU1JudAxs3S3j0qi4-42" value="" style="edgeStyle=orthogonalEdgeStyle;rounded=0;orthogonalLoop=1;jettySize=auto;html=1;entryX=0.5;entryY=1;entryDx=0;entryDy=0;" parent="1" source="zFSgU1JudAxs3S3j0qi4-44" target="zFSgU1JudAxs3S3j0qi4-27" edge="1">
          <mxGeometry relative="1" as="geometry">
            <mxPoint x="465" y="955" as="targetPoint" />
          </mxGeometry>
        </mxCell>
        <mxCell id="zFSgU1JudAxs3S3j0qi4-43" value="Include" style="edgeLabel;html=1;align=center;verticalAlign=middle;resizable=0;points=[];" parent="zFSgU1JudAxs3S3j0qi4-42" vertex="1" connectable="0">
          <mxGeometry x="-0.2994" y="1" relative="1" as="geometry">
            <mxPoint as="offset" />
          </mxGeometry>
        </mxCell>
        <mxCell id="mhW23_94ExutKZyGpzAe-4" value="" style="edgeStyle=orthogonalEdgeStyle;rounded=0;orthogonalLoop=1;jettySize=auto;html=1;entryX=0;entryY=1;entryDx=0;entryDy=0;" parent="1" source="zFSgU1JudAxs3S3j0qi4-44" target="zFSgU1JudAxs3S3j0qi4-71" edge="1">
          <mxGeometry relative="1" as="geometry">
            <mxPoint x="357.5" y="1060" as="targetPoint" />
            <Array as="points">
              <mxPoint x="358" y="1010" />
              <mxPoint x="-94" y="1010" />
            </Array>
          </mxGeometry>
        </mxCell>
        <mxCell id="mhW23_94ExutKZyGpzAe-5" value="include" style="edgeLabel;html=1;align=center;verticalAlign=middle;resizable=0;points=[];" parent="mhW23_94ExutKZyGpzAe-4" vertex="1" connectable="0">
          <mxGeometry x="-0.416" y="2" relative="1" as="geometry">
            <mxPoint as="offset" />
          </mxGeometry>
        </mxCell>
        <mxCell id="zFSgU1JudAxs3S3j0qi4-44" value="Débit" style="ellipse;whiteSpace=wrap;html=1;rounded=0;shadow=1;comic=0;labelBackgroundColor=none;strokeWidth=1;fontFamily=Verdana;fontSize=12;align=center;" parent="1" vertex="1">
          <mxGeometry x="320" y="930" width="75" height="50" as="geometry" />
        </mxCell>
        <mxCell id="zFSgU1JudAxs3S3j0qi4-45" value="" style="edgeStyle=orthogonalEdgeStyle;rounded=0;orthogonalLoop=1;jettySize=auto;html=1;entryX=0;entryY=0;entryDx=0;entryDy=0;" parent="1" source="zFSgU1JudAxs3S3j0qi4-49" target="zFSgU1JudAxs3S3j0qi4-41" edge="1">
          <mxGeometry relative="1" as="geometry">
            <Array as="points">
              <mxPoint x="276" y="800" />
            </Array>
          </mxGeometry>
        </mxCell>
        <mxCell id="zFSgU1JudAxs3S3j0qi4-46" value="Extend" style="edgeLabel;html=1;align=center;verticalAlign=middle;resizable=0;points=[];" parent="zFSgU1JudAxs3S3j0qi4-45" vertex="1" connectable="0">
          <mxGeometry x="-0.1909" relative="1" as="geometry">
            <mxPoint x="-15" as="offset" />
          </mxGeometry>
        </mxCell>
        <mxCell id="zFSgU1JudAxs3S3j0qi4-47" value="" style="edgeStyle=orthogonalEdgeStyle;rounded=0;orthogonalLoop=1;jettySize=auto;html=1;" parent="1" source="zFSgU1JudAxs3S3j0qi4-49" target="zFSgU1JudAxs3S3j0qi4-71" edge="1">
          <mxGeometry relative="1" as="geometry">
            <Array as="points">
              <mxPoint x="-12" y="800" />
            </Array>
          </mxGeometry>
        </mxCell>
        <mxCell id="zFSgU1JudAxs3S3j0qi4-48" value="Include" style="edgeLabel;html=1;align=center;verticalAlign=middle;resizable=0;points=[];" parent="zFSgU1JudAxs3S3j0qi4-47" vertex="1" connectable="0">
          <mxGeometry x="-0.2967" y="1" relative="1" as="geometry">
            <mxPoint as="offset" />
          </mxGeometry>
        </mxCell>
        <mxCell id="zFSgU1JudAxs3S3j0qi4-49" value="Visa" style="ellipse;whiteSpace=wrap;html=1;rounded=0;shadow=1;comic=0;labelBackgroundColor=none;strokeWidth=1;fontFamily=Verdana;fontSize=12;align=center;" parent="1" vertex="1">
          <mxGeometry x="150" y="775" width="75" height="50" as="geometry" />
        </mxCell>
        <mxCell id="zFSgU1JudAxs3S3j0qi4-50" value="" style="edgeStyle=orthogonalEdgeStyle;rounded=0;orthogonalLoop=1;jettySize=auto;html=1;" parent="1" source="zFSgU1JudAxs3S3j0qi4-54" target="zFSgU1JudAxs3S3j0qi4-41" edge="1">
          <mxGeometry relative="1" as="geometry" />
        </mxCell>
        <mxCell id="zFSgU1JudAxs3S3j0qi4-51" value="Extend" style="edgeLabel;html=1;align=center;verticalAlign=middle;resizable=0;points=[];" parent="zFSgU1JudAxs3S3j0qi4-50" vertex="1" connectable="0">
          <mxGeometry x="-0.1736" y="1" relative="1" as="geometry">
            <mxPoint as="offset" />
          </mxGeometry>
        </mxCell>
        <mxCell id="zFSgU1JudAxs3S3j0qi4-52" value="" style="edgeStyle=orthogonalEdgeStyle;rounded=0;orthogonalLoop=1;jettySize=auto;html=1;" parent="1" source="zFSgU1JudAxs3S3j0qi4-54" target="zFSgU1JudAxs3S3j0qi4-71" edge="1">
          <mxGeometry relative="1" as="geometry" />
        </mxCell>
        <mxCell id="zFSgU1JudAxs3S3j0qi4-53" value="Include" style="edgeLabel;html=1;align=center;verticalAlign=middle;resizable=0;points=[];" parent="zFSgU1JudAxs3S3j0qi4-52" vertex="1" connectable="0">
          <mxGeometry x="-0.2587" y="1" relative="1" as="geometry">
            <mxPoint as="offset" />
          </mxGeometry>
        </mxCell>
        <mxCell id="zFSgU1JudAxs3S3j0qi4-54" value="MasterCard" style="ellipse;whiteSpace=wrap;html=1;rounded=0;shadow=1;comic=0;labelBackgroundColor=none;strokeWidth=1;fontFamily=Verdana;fontSize=12;align=center;" parent="1" vertex="1">
          <mxGeometry x="130" y="840" width="75" height="50" as="geometry" />
        </mxCell>
        <mxCell id="zFSgU1JudAxs3S3j0qi4-55" value="" style="edgeStyle=orthogonalEdgeStyle;rounded=0;orthogonalLoop=1;jettySize=auto;html=1;entryX=0;entryY=1;entryDx=0;entryDy=0;" parent="1" source="zFSgU1JudAxs3S3j0qi4-59" target="zFSgU1JudAxs3S3j0qi4-41" edge="1">
          <mxGeometry relative="1" as="geometry" />
        </mxCell>
        <mxCell id="zFSgU1JudAxs3S3j0qi4-56" value="Extend" style="edgeLabel;html=1;align=center;verticalAlign=middle;resizable=0;points=[];" parent="zFSgU1JudAxs3S3j0qi4-55" vertex="1" connectable="0">
          <mxGeometry x="-0.4666" relative="1" as="geometry">
            <mxPoint x="-3" as="offset" />
          </mxGeometry>
        </mxCell>
        <mxCell id="zFSgU1JudAxs3S3j0qi4-57" value="" style="edgeStyle=orthogonalEdgeStyle;rounded=0;orthogonalLoop=1;jettySize=auto;html=1;entryX=0.5;entryY=1;entryDx=0;entryDy=0;" parent="1" source="zFSgU1JudAxs3S3j0qi4-59" target="zFSgU1JudAxs3S3j0qi4-71" edge="1">
          <mxGeometry relative="1" as="geometry">
            <mxPoint x="70" y="935" as="targetPoint" />
          </mxGeometry>
        </mxCell>
        <mxCell id="zFSgU1JudAxs3S3j0qi4-58" value="Include" style="edgeLabel;html=1;align=center;verticalAlign=middle;resizable=0;points=[];" parent="zFSgU1JudAxs3S3j0qi4-57" vertex="1" connectable="0">
          <mxGeometry x="-0.2423" y="2" relative="1" as="geometry">
            <mxPoint as="offset" />
          </mxGeometry>
        </mxCell>
        <mxCell id="zFSgU1JudAxs3S3j0qi4-59" value="Américan&lt;br&gt;Express" style="ellipse;whiteSpace=wrap;html=1;rounded=0;shadow=1;comic=0;labelBackgroundColor=none;strokeWidth=1;fontFamily=Verdana;fontSize=12;align=center;" parent="1" vertex="1">
          <mxGeometry x="150" y="910" width="75" height="50" as="geometry" />
        </mxCell>
        <mxCell id="zFSgU1JudAxs3S3j0qi4-60" value="" style="edgeStyle=orthogonalEdgeStyle;rounded=0;orthogonalLoop=1;jettySize=auto;html=1;" parent="1" source="zFSgU1JudAxs3S3j0qi4-61" target="zFSgU1JudAxs3S3j0qi4-1" edge="1">
          <mxGeometry relative="1" as="geometry" />
        </mxCell>
        <mxCell id="zFSgU1JudAxs3S3j0qi4-61" value="Systeme" style="shape=umlActor;verticalLabelPosition=bottom;verticalAlign=top;html=1;outlineConnect=0;" parent="1" vertex="1">
          <mxGeometry x="-710" y="730" width="30" height="60" as="geometry" />
        </mxCell>
        <mxCell id="zFSgU1JudAxs3S3j0qi4-62" value="" style="edgeStyle=orthogonalEdgeStyle;rounded=0;orthogonalLoop=1;jettySize=auto;html=1;" parent="1" source="zFSgU1JudAxs3S3j0qi4-64" target="zFSgU1JudAxs3S3j0qi4-10" edge="1">
          <mxGeometry relative="1" as="geometry" />
        </mxCell>
        <mxCell id="zFSgU1JudAxs3S3j0qi4-63" value="Extend" style="edgeLabel;html=1;align=center;verticalAlign=middle;resizable=0;points=[];" parent="zFSgU1JudAxs3S3j0qi4-62" vertex="1" connectable="0">
          <mxGeometry x="-0.2" y="-1" relative="1" as="geometry">
            <mxPoint as="offset" />
          </mxGeometry>
        </mxCell>
        <mxCell id="zFSgU1JudAxs3S3j0qi4-64" value="ID,&lt;br&gt;catégorie,&lt;br&gt;Titre,&lt;br&gt;Description,&lt;br&gt;image,&lt;br&gt;prix,&lt;br&gt;livraison,&lt;br&gt;grandeur(size),&lt;br&gt;couleur,&lt;br&gt;quatitée &lt;br&gt;etc...&lt;br&gt;du produit" style="ellipse;whiteSpace=wrap;html=1;rounded=0;shadow=1;comic=0;labelBackgroundColor=none;strokeWidth=1;fontFamily=Verdana;fontSize=12;align=center;" parent="1" vertex="1">
          <mxGeometry x="740" y="252.5" width="230" height="195" as="geometry" />
        </mxCell>
        <mxCell id="zFSgU1JudAxs3S3j0qi4-65" value="Espace du panier" style="ellipse;whiteSpace=wrap;html=1;rounded=0;shadow=1;comic=0;labelBackgroundColor=none;strokeWidth=1;fontFamily=Verdana;fontSize=12;align=center;" parent="1" vertex="1">
          <mxGeometry x="860" y="80" width="90" height="60" as="geometry" />
        </mxCell>
        <mxCell id="zFSgU1JudAxs3S3j0qi4-66" value="" style="edgeStyle=orthogonalEdgeStyle;rounded=0;orthogonalLoop=1;jettySize=auto;html=1;entryX=0;entryY=0.5;entryDx=0;entryDy=0;" parent="1" source="zFSgU1JudAxs3S3j0qi4-70" target="zFSgU1JudAxs3S3j0qi4-10" edge="1">
          <mxGeometry relative="1" as="geometry">
            <mxPoint x="495" y="440" as="targetPoint" />
            <Array as="points">
              <mxPoint x="495" y="350" />
            </Array>
          </mxGeometry>
        </mxCell>
        <mxCell id="zFSgU1JudAxs3S3j0qi4-67" value="Extend" style="edgeLabel;html=1;align=center;verticalAlign=middle;resizable=0;points=[];" parent="zFSgU1JudAxs3S3j0qi4-66" vertex="1" connectable="0">
          <mxGeometry x="-0.321" relative="1" as="geometry">
            <mxPoint as="offset" />
          </mxGeometry>
        </mxCell>
        <mxCell id="zFSgU1JudAxs3S3j0qi4-68" value="" style="edgeStyle=orthogonalEdgeStyle;rounded=0;orthogonalLoop=1;jettySize=auto;html=1;entryX=0.5;entryY=0;entryDx=0;entryDy=0;" parent="1" source="zFSgU1JudAxs3S3j0qi4-70" target="zFSgU1JudAxs3S3j0qi4-25" edge="1">
          <mxGeometry relative="1" as="geometry">
            <mxPoint x="495" y="555" as="targetPoint" />
          </mxGeometry>
        </mxCell>
        <mxCell id="zFSgU1JudAxs3S3j0qi4-69" value="Include" style="edgeLabel;html=1;align=center;verticalAlign=middle;resizable=0;points=[];" parent="zFSgU1JudAxs3S3j0qi4-68" vertex="1" connectable="0">
          <mxGeometry x="-0.2309" y="-3" relative="1" as="geometry">
            <mxPoint as="offset" />
          </mxGeometry>
        </mxCell>
        <mxCell id="zFSgU1JudAxs3S3j0qi4-70" value="buy now" style="ellipse;whiteSpace=wrap;html=1;rounded=0;shadow=1;comic=0;labelBackgroundColor=none;strokeWidth=1;fontFamily=Verdana;fontSize=12;align=center;" parent="1" vertex="1">
          <mxGeometry x="457.5" y="470" width="75" height="50" as="geometry" />
        </mxCell>
        <mxCell id="mhW23_94ExutKZyGpzAe-2" value="" style="edgeStyle=orthogonalEdgeStyle;rounded=0;orthogonalLoop=1;jettySize=auto;html=1;entryX=0.5;entryY=0;entryDx=0;entryDy=0;" parent="1" source="zFSgU1JudAxs3S3j0qi4-71" target="a_Jddfn_F3ZeKDNdtjed-1" edge="1">
          <mxGeometry relative="1" as="geometry">
            <Array as="points">
              <mxPoint x="-300" y="865" />
            </Array>
          </mxGeometry>
        </mxCell>
        <mxCell id="mhW23_94ExutKZyGpzAe-6" value="Include" style="edgeLabel;html=1;align=center;verticalAlign=middle;resizable=0;points=[];" parent="mhW23_94ExutKZyGpzAe-2" vertex="1" connectable="0">
          <mxGeometry x="-0.0765" y="1" relative="1" as="geometry">
            <mxPoint as="offset" />
          </mxGeometry>
        </mxCell>
        <mxCell id="zFSgU1JudAxs3S3j0qi4-71" value="inforamtion:&lt;br&gt;numero de carte,&lt;br&gt;nom du détenteur,&lt;br&gt;date expiration,&lt;br&gt;# cvv" style="ellipse;whiteSpace=wrap;html=1;rounded=0;shadow=1;comic=0;labelBackgroundColor=none;strokeWidth=1;fontFamily=Verdana;fontSize=12;align=center;" parent="1" vertex="1">
          <mxGeometry x="-120" y="820" width="175" height="90" as="geometry" />
        </mxCell>
        <mxCell id="mhW23_94ExutKZyGpzAe-12" value="" style="edgeStyle=orthogonalEdgeStyle;rounded=0;orthogonalLoop=1;jettySize=auto;html=1;entryX=0;entryY=0.5;entryDx=0;entryDy=0;" parent="1" source="mhW23_94ExutKZyGpzAe-1" target="mhW23_94ExutKZyGpzAe-8" edge="1">
          <mxGeometry relative="1" as="geometry">
            <mxPoint x="167.5" y="1180" as="targetPoint" />
          </mxGeometry>
        </mxCell>
        <mxCell id="mhW23_94ExutKZyGpzAe-1" value="info adresse de livraison :&lt;br&gt;no civic,&lt;br&gt;rue,&lt;br&gt;ville,&lt;br&gt;province,&lt;br&gt;pays,&lt;br&gt;code postal," style="ellipse;whiteSpace=wrap;html=1;rounded=0;shadow=1;comic=0;labelBackgroundColor=none;strokeWidth=1;fontFamily=Verdana;fontSize=12;align=center;" parent="1" vertex="1">
          <mxGeometry x="-152.5" y="1110" width="240" height="140" as="geometry" />
        </mxCell>
        <mxCell id="mhW23_94ExutKZyGpzAe-8" value="si information valide" style="rhombus;whiteSpace=wrap;html=1;fontColor=#000000;fillColor=#ffffc0;strokeColor=#ff0000;" parent="1" vertex="1">
          <mxGeometry x="212.5" y="1145" width="117.5" height="70" as="geometry" />
        </mxCell>
        <mxCell id="mhW23_94ExutKZyGpzAe-9" value="yes" style="edgeStyle=orthogonalEdgeStyle;html=1;align=left;verticalAlign=bottom;endArrow=open;endSize=8;strokeColor=#ff0000;rounded=0;entryX=0;entryY=0.5;entryDx=0;entryDy=0;" parent="1" source="mhW23_94ExutKZyGpzAe-8" target="mhW23_94ExutKZyGpzAe-13" edge="1">
          <mxGeometry x="-1" relative="1" as="geometry">
            <mxPoint x="495" y="1060" as="targetPoint" />
          </mxGeometry>
        </mxCell>
        <mxCell id="mhW23_94ExutKZyGpzAe-10" value="no" style="edgeStyle=orthogonalEdgeStyle;html=1;align=left;verticalAlign=top;endArrow=open;endSize=8;strokeColor=#ff0000;rounded=0;" parent="1" source="mhW23_94ExutKZyGpzAe-8" target="mhW23_94ExutKZyGpzAe-18" edge="1">
          <mxGeometry x="-1" relative="1" as="geometry">
            <mxPoint x="252.5" y="1260" as="targetPoint" />
          </mxGeometry>
        </mxCell>
        <mxCell id="mhW23_94ExutKZyGpzAe-13" value="Générer la commande" style="ellipse;whiteSpace=wrap;html=1;rounded=0;shadow=1;comic=0;labelBackgroundColor=none;strokeWidth=1;fontFamily=Verdana;fontSize=12;align=center;" parent="1" vertex="1">
          <mxGeometry x="395" y="1155" width="75" height="50" as="geometry" />
        </mxCell>
        <mxCell id="mhW23_94ExutKZyGpzAe-18" value="Message d&#39;érreur" style="ellipse;whiteSpace=wrap;html=1;rounded=0;shadow=1;comic=0;labelBackgroundColor=none;strokeWidth=1;fontFamily=Verdana;fontSize=12;align=center;" parent="1" vertex="1">
          <mxGeometry x="233.75" y="1280" width="75" height="50" as="geometry" />
        </mxCell>
        <mxCell id="a_Jddfn_F3ZeKDNdtjed-1" value="si information valide" style="rhombus;whiteSpace=wrap;html=1;fontColor=#000000;fillColor=#ffffc0;strokeColor=#ff0000;" parent="1" vertex="1">
          <mxGeometry x="-360" y="940" width="120" height="80" as="geometry" />
        </mxCell>
        <mxCell id="a_Jddfn_F3ZeKDNdtjed-2" value="no" style="edgeStyle=orthogonalEdgeStyle;html=1;align=left;verticalAlign=bottom;endArrow=open;endSize=8;strokeColor=#ff0000;rounded=0;entryX=0;entryY=0.5;entryDx=0;entryDy=0;" parent="1" source="a_Jddfn_F3ZeKDNdtjed-1" target="a_Jddfn_F3ZeKDNdtjed-4" edge="1">
          <mxGeometry x="-1" relative="1" as="geometry">
            <mxPoint x="-180" y="940" as="targetPoint" />
          </mxGeometry>
        </mxCell>
        <mxCell id="a_Jddfn_F3ZeKDNdtjed-3" value="yes" style="edgeStyle=orthogonalEdgeStyle;html=1;align=left;verticalAlign=top;endArrow=open;endSize=8;strokeColor=#ff0000;rounded=0;entryX=0;entryY=0.5;entryDx=0;entryDy=0;" parent="1" source="a_Jddfn_F3ZeKDNdtjed-1" target="mhW23_94ExutKZyGpzAe-1" edge="1">
          <mxGeometry x="-1" relative="1" as="geometry">
            <mxPoint x="-320" y="1020" as="targetPoint" />
            <Array as="points">
              <mxPoint x="-300" y="1180" />
            </Array>
          </mxGeometry>
        </mxCell>
        <mxCell id="a_Jddfn_F3ZeKDNdtjed-4" value="Message d&#39;érreur" style="ellipse;whiteSpace=wrap;html=1;rounded=0;shadow=1;comic=0;labelBackgroundColor=none;strokeWidth=1;fontFamily=Verdana;fontSize=12;align=center;" parent="1" vertex="1">
          <mxGeometry x="-195" y="955" width="75" height="50" as="geometry" />
        </mxCell>
        <mxCell id="BJrzJvtTORnxY0lvjJr7-2" value="Include" style="html=1;verticalAlign=bottom;endArrow=block;edgeStyle=elbowEdgeStyle;elbow=vertical;curved=0;rounded=0;entryX=0.5;entryY=1;entryDx=0;entryDy=0;exitX=1;exitY=0.5;exitDx=0;exitDy=0;" edge="1" parent="1" source="zFSgU1JudAxs3S3j0qi4-70" target="zFSgU1JudAxs3S3j0qi4-65">
          <mxGeometry width="80" relative="1" as="geometry">
            <mxPoint x="540" y="450" as="sourcePoint" />
            <mxPoint x="560" y="440" as="targetPoint" />
            <Array as="points">
              <mxPoint x="990" y="320" />
              <mxPoint x="990" y="420" />
              <mxPoint x="370" y="480" />
              <mxPoint x="370" y="500" />
              <mxPoint x="440" y="530" />
              <mxPoint x="270" y="530" />
              <mxPoint x="280" y="530" />
              <mxPoint x="320" y="450" />
            </Array>
          </mxGeometry>
        </mxCell>
        <mxCell id="BJrzJvtTORnxY0lvjJr7-5" value="Include" style="html=1;verticalAlign=bottom;endArrow=block;edgeStyle=elbowEdgeStyle;elbow=vertical;curved=0;rounded=0;entryX=0.987;entryY=0.821;entryDx=0;entryDy=0;exitX=1;exitY=0.5;exitDx=0;exitDy=0;entryPerimeter=0;" edge="1" parent="1" source="zFSgU1JudAxs3S3j0qi4-16" target="zFSgU1JudAxs3S3j0qi4-65">
          <mxGeometry width="80" relative="1" as="geometry">
            <mxPoint x="543" y="505" as="sourcePoint" />
            <mxPoint x="915" y="150" as="targetPoint" />
            <Array as="points">
              <mxPoint x="1040" y="360" />
              <mxPoint x="1000" y="430" />
              <mxPoint x="380" y="490" />
              <mxPoint x="380" y="510" />
              <mxPoint x="450" y="540" />
              <mxPoint x="280" y="540" />
              <mxPoint x="290" y="540" />
              <mxPoint x="330" y="460" />
            </Array>
          </mxGeometry>
        </mxCell>
      </root>
    </mxGraphModel>
  </diagram>
</mxfile>
